G04 EAGLE Gerber RS-274X export*
G75*
%MOMM*%
%FSLAX34Y34*%
%LPD*%
%INBottom Copper*%
%IPPOS*%
%AMOC8*
5,1,8,0,0,1.08239X$1,22.5*%
G01*
G04 Define Apertures*
%ADD10C,0.808000*%
%ADD11C,1.170000*%
%ADD12R,1.066800X1.066800*%
%ADD13C,0.457200*%
%ADD14C,0.152400*%
%ADD15C,0.304800*%
%ADD16C,0.502400*%
G36*
X657481Y1302448D02*
X657186Y1302378D01*
X656887Y1302429D01*
X656632Y1302592D01*
X656460Y1302842D01*
X656400Y1303140D01*
X656400Y1693984D01*
X656456Y1694270D01*
X656623Y1694523D01*
X674177Y1712077D01*
X674418Y1712240D01*
X674716Y1712300D01*
X1115084Y1712300D01*
X1115370Y1712244D01*
X1115623Y1712077D01*
X1155338Y1672362D01*
X1155430Y1672305D01*
X1155462Y1672300D01*
X1155638Y1672300D01*
X1155913Y1672249D01*
X1156168Y1672085D01*
X1156340Y1671835D01*
X1156400Y1671538D01*
X1156400Y1327616D01*
X1156344Y1327330D01*
X1156177Y1327077D01*
X1132623Y1303523D01*
X1132382Y1303360D01*
X1132084Y1303300D01*
X658488Y1303300D01*
X658383Y1303275D01*
X658356Y1303256D01*
X657701Y1302601D01*
X657481Y1302448D01*
G37*
G36*
X281087Y888187D02*
X282266Y888320D01*
X283445Y888187D01*
X284566Y887795D01*
X285571Y887164D01*
X286410Y886325D01*
X287041Y885320D01*
X287433Y884199D01*
X287566Y883023D01*
X287566Y872017D01*
X287433Y870841D01*
X287041Y869720D01*
X286410Y868715D01*
X285571Y867876D01*
X284566Y867245D01*
X283445Y866853D01*
X282266Y866720D01*
X281087Y866853D01*
X279966Y867245D01*
X278961Y867876D01*
X278122Y868715D01*
X277491Y869720D01*
X277099Y870841D01*
X276966Y872017D01*
X276966Y883023D01*
X277099Y884199D01*
X277491Y885320D01*
X278122Y886325D01*
X278961Y887164D01*
X279966Y887795D01*
X281087Y888187D01*
G37*
G36*
X281087Y888187D02*
X282266Y888320D01*
X283445Y888187D01*
X284566Y887795D01*
X285571Y887164D01*
X286410Y886325D01*
X287041Y885320D01*
X287433Y884199D01*
X287566Y883023D01*
X287566Y872017D01*
X287433Y870841D01*
X287041Y869720D01*
X286410Y868715D01*
X285571Y867876D01*
X284566Y867245D01*
X283445Y866853D01*
X282266Y866720D01*
X281087Y866853D01*
X279966Y867245D01*
X278961Y867876D01*
X278122Y868715D01*
X277491Y869720D01*
X277099Y870841D01*
X276966Y872017D01*
X276966Y883023D01*
X277099Y884199D01*
X277491Y885320D01*
X278122Y886325D01*
X278961Y887164D01*
X279966Y887795D01*
X281087Y888187D01*
G37*
G36*
X367487Y888187D02*
X368666Y888320D01*
X369845Y888187D01*
X370966Y887795D01*
X371971Y887164D01*
X372810Y886325D01*
X373441Y885320D01*
X373833Y884199D01*
X373966Y883023D01*
X373966Y872017D01*
X373833Y870841D01*
X373441Y869720D01*
X372810Y868715D01*
X371971Y867876D01*
X370966Y867245D01*
X369845Y866853D01*
X368666Y866720D01*
X367487Y866853D01*
X366366Y867245D01*
X365361Y867876D01*
X364522Y868715D01*
X363891Y869720D01*
X363499Y870841D01*
X363366Y872017D01*
X363366Y883023D01*
X363499Y884199D01*
X363891Y885320D01*
X364522Y886325D01*
X365361Y887164D01*
X366366Y887795D01*
X367487Y888187D01*
G37*
G36*
X367487Y888187D02*
X368666Y888320D01*
X369845Y888187D01*
X370966Y887795D01*
X371971Y887164D01*
X372810Y886325D01*
X373441Y885320D01*
X373833Y884199D01*
X373966Y883023D01*
X373966Y872017D01*
X373833Y870841D01*
X373441Y869720D01*
X372810Y868715D01*
X371971Y867876D01*
X370966Y867245D01*
X369845Y866853D01*
X368666Y866720D01*
X367487Y866853D01*
X366366Y867245D01*
X365361Y867876D01*
X364522Y868715D01*
X363891Y869720D01*
X363499Y870841D01*
X363366Y872017D01*
X363366Y883023D01*
X363499Y884199D01*
X363891Y885320D01*
X364522Y886325D01*
X365361Y887164D01*
X366366Y887795D01*
X367487Y888187D01*
G37*
G36*
X281087Y928187D02*
X282266Y928320D01*
X283445Y928187D01*
X284566Y927795D01*
X285571Y927164D01*
X286410Y926325D01*
X287041Y925320D01*
X287433Y924199D01*
X287566Y923023D01*
X287566Y915017D01*
X287433Y913841D01*
X287041Y912720D01*
X286410Y911715D01*
X285571Y910876D01*
X284566Y910245D01*
X283445Y909853D01*
X282266Y909720D01*
X281087Y909853D01*
X279966Y910245D01*
X278961Y910876D01*
X278122Y911715D01*
X277491Y912720D01*
X277099Y913841D01*
X276966Y915017D01*
X276966Y923023D01*
X277099Y924199D01*
X277491Y925320D01*
X278122Y926325D01*
X278961Y927164D01*
X279966Y927795D01*
X281087Y928187D01*
G37*
G36*
X281087Y928187D02*
X282266Y928320D01*
X283445Y928187D01*
X284566Y927795D01*
X285571Y927164D01*
X286410Y926325D01*
X287041Y925320D01*
X287433Y924199D01*
X287566Y923023D01*
X287566Y915017D01*
X287433Y913841D01*
X287041Y912720D01*
X286410Y911715D01*
X285571Y910876D01*
X284566Y910245D01*
X283445Y909853D01*
X282266Y909720D01*
X281087Y909853D01*
X279966Y910245D01*
X278961Y910876D01*
X278122Y911715D01*
X277491Y912720D01*
X277099Y913841D01*
X276966Y915017D01*
X276966Y923023D01*
X277099Y924199D01*
X277491Y925320D01*
X278122Y926325D01*
X278961Y927164D01*
X279966Y927795D01*
X281087Y928187D01*
G37*
G36*
X367487Y928187D02*
X368666Y928320D01*
X369845Y928187D01*
X370966Y927795D01*
X371971Y927164D01*
X372810Y926325D01*
X373441Y925320D01*
X373833Y924199D01*
X373966Y923023D01*
X373966Y915017D01*
X373833Y913841D01*
X373441Y912720D01*
X372810Y911715D01*
X371971Y910876D01*
X370966Y910245D01*
X369845Y909853D01*
X368666Y909720D01*
X367487Y909853D01*
X366366Y910245D01*
X365361Y910876D01*
X364522Y911715D01*
X363891Y912720D01*
X363499Y913841D01*
X363366Y915017D01*
X363366Y923023D01*
X363499Y924199D01*
X363891Y925320D01*
X364522Y926325D01*
X365361Y927164D01*
X366366Y927795D01*
X367487Y928187D01*
G37*
G36*
X367487Y928187D02*
X368666Y928320D01*
X369845Y928187D01*
X370966Y927795D01*
X371971Y927164D01*
X372810Y926325D01*
X373441Y925320D01*
X373833Y924199D01*
X373966Y923023D01*
X373966Y915017D01*
X373833Y913841D01*
X373441Y912720D01*
X372810Y911715D01*
X371971Y910876D01*
X370966Y910245D01*
X369845Y909853D01*
X368666Y909720D01*
X367487Y909853D01*
X366366Y910245D01*
X365361Y910876D01*
X364522Y911715D01*
X363891Y912720D01*
X363499Y913841D01*
X363366Y915017D01*
X363366Y923023D01*
X363499Y924199D01*
X363891Y925320D01*
X364522Y926325D01*
X365361Y927164D01*
X366366Y927795D01*
X367487Y928187D01*
G37*
D10*
X331971Y738840D03*
X319971Y738840D03*
X319971Y750840D03*
X331971Y750840D03*
X343971Y750840D03*
X355971Y750840D03*
X355971Y738840D03*
X343971Y738840D03*
X319971Y726840D03*
X331971Y726840D03*
X343971Y726840D03*
X355971Y726840D03*
X355971Y714840D03*
X343971Y714840D03*
X331971Y714840D03*
X319971Y714840D03*
D11*
X368666Y919020D03*
X282266Y919020D03*
X368666Y877520D03*
X282266Y877520D03*
D12*
X240344Y633956D03*
X203388Y633956D03*
X348678Y635924D03*
X311722Y635924D03*
X462978Y633956D03*
X426022Y633956D03*
D13*
X139700Y863600D03*
X342900Y660400D03*
X355600Y663174D03*
D14*
X352827Y660400D01*
X342900Y660400D01*
D13*
X406400Y787400D03*
D14*
X377875Y787400D01*
X374650Y790625D01*
X368300Y796975D01*
D13*
X482600Y698500D03*
D14*
X343971Y726840D02*
X331971Y738840D01*
X331971Y750840D02*
X343971Y750840D01*
X355971Y726840D02*
X355971Y714840D01*
X331971Y750840D02*
X319971Y750840D01*
X343971Y714840D02*
X355971Y714840D01*
X331971Y714840D02*
X331971Y726840D01*
X331971Y738840D02*
X319971Y738840D01*
X331971Y738840D02*
X331971Y750840D01*
X331971Y714840D02*
X343971Y714840D01*
X343971Y726840D02*
X331971Y726840D01*
X331971Y738840D02*
X343971Y738840D01*
X355971Y738840D01*
X355971Y750840D01*
X355971Y738840D02*
X355971Y726840D01*
X319971Y726840D02*
X319971Y714840D01*
X319971Y726840D02*
X319971Y738840D01*
X319971Y714840D02*
X331971Y714840D01*
D13*
X266700Y660400D03*
D14*
X266700Y635000D01*
D13*
X266700Y635000D03*
X419100Y673100D03*
X381000Y685800D03*
D14*
X406400Y685800D01*
X419100Y673100D01*
X319971Y714840D02*
X298212Y736600D01*
X371850Y787825D02*
X374650Y790625D01*
X371850Y787825D02*
X343865Y787825D01*
X331165Y775125D01*
X330200Y752612D02*
X331971Y750840D01*
D13*
X406400Y838200D03*
D14*
X406400Y787400D01*
D13*
X368300Y795782D03*
D14*
X368300Y796975D01*
D13*
X232918Y660400D03*
D14*
X319971Y738840D02*
X319971Y750840D01*
D13*
X296418Y736600D03*
D14*
X298212Y736600D01*
D13*
X412242Y749300D03*
X331600Y774691D03*
D14*
X331165Y775125D01*
X330200Y774160D01*
X330200Y752612D01*
D13*
X317500Y787400D03*
X317500Y812800D03*
D14*
X311150Y793750D02*
X317500Y787400D01*
X317500Y800100D02*
X317500Y812800D01*
X317500Y800100D02*
X311150Y793750D01*
D13*
X279400Y711200D03*
D14*
X266700Y711200D01*
D13*
X215900Y664718D03*
D14*
X220218Y664718D01*
X266700Y711200D01*
D13*
X395200Y814300D03*
D14*
X393700Y814300D01*
D13*
X279400Y740918D03*
X279400Y724330D03*
D14*
X279400Y740918D01*
D13*
X381000Y838200D03*
D14*
X381000Y827000D02*
X393700Y814300D01*
X379500Y800100D01*
X342900Y800100D01*
X283718Y740918D01*
X279400Y740918D01*
X381000Y827000D02*
X381000Y838200D01*
D13*
X457200Y787400D03*
D14*
X469900Y800100D01*
X482600Y800100D01*
X482600Y838200D01*
D13*
X482600Y838200D03*
X431800Y791718D03*
X410718Y800100D03*
D14*
X419100Y791718D02*
X431800Y791718D01*
X419100Y791718D02*
X410718Y800100D01*
D13*
X443928Y812800D03*
X444812Y793195D03*
D15*
X443928Y794079D01*
X443928Y812800D01*
D13*
X393700Y711200D03*
D14*
X390242Y711200D01*
D13*
X381000Y702818D03*
D14*
X381860Y702818D01*
X390242Y711200D01*
D13*
X317289Y766488D03*
X330200Y685800D03*
D14*
X292100Y741298D02*
X317289Y766488D01*
X292100Y741298D02*
X292100Y723900D01*
X330200Y685800D01*
D13*
X406400Y749300D03*
X355600Y783507D03*
D14*
X389807Y749300D01*
X406400Y749300D01*
D16*
X380638Y709088D03*
D13*
X380974Y736600D03*
D14*
X380638Y736264D02*
X380638Y709088D01*
X380638Y736264D02*
X380974Y736600D01*
D13*
X469900Y931418D03*
X330200Y673100D03*
D14*
X469900Y931418D02*
X529082Y931418D01*
X533400Y927100D01*
X533400Y914400D01*
X431800Y812800D01*
X431800Y800100D01*
X449987Y781913D01*
X449987Y704980D02*
X444500Y699493D01*
X444500Y698500D01*
X449987Y704980D02*
X449987Y781913D01*
X444500Y698500D02*
X443507Y698500D01*
X441190Y696183D01*
X428750Y696183D01*
X426433Y698500D01*
X355600Y698500D01*
X330200Y673100D01*
D13*
X228600Y863600D03*
X216915Y890015D03*
D14*
X228600Y878330D01*
X228600Y863600D01*
D13*
X292100Y647700D03*
X292100Y685800D03*
D15*
X292100Y647700D01*
X419100Y774700D02*
X411480Y782320D01*
D13*
X419100Y780542D03*
D15*
X419100Y774700D01*
X411480Y782320D02*
X377926Y782320D01*
D13*
X533400Y850900D03*
X508000Y825500D03*
D15*
X533400Y850900D01*
D13*
X457200Y793559D03*
X469900Y825500D03*
D15*
X457200Y812800D02*
X457200Y793559D01*
X457200Y812800D02*
X469900Y825500D01*
D13*
X368300Y838200D03*
X355600Y812800D03*
D15*
X355600Y825500D01*
X368300Y838200D01*
D13*
X425349Y736600D03*
D15*
X419100Y742849D01*
X419100Y774700D01*
D13*
X374650Y784518D03*
D15*
X375728Y784518D02*
X377926Y782320D01*
X375728Y784518D02*
X374650Y784518D01*
D13*
X294783Y853583D03*
D14*
X421783Y853583D01*
X495300Y927100D02*
X520700Y927100D01*
X495300Y927100D02*
X421783Y853583D01*
D13*
X520700Y927100D03*
X258318Y850900D03*
X266700Y863600D03*
D14*
X258318Y855218D02*
X258318Y850900D01*
X258318Y855218D02*
X266700Y863600D01*
D13*
X317500Y825500D03*
X241300Y723900D03*
X254000Y684376D03*
X266700Y698500D03*
D14*
X266700Y697076D02*
X254000Y684376D01*
D15*
X266700Y697076D02*
X266700Y698500D01*
D13*
X355600Y890306D03*
X317500Y889000D03*
D14*
X318806Y890306D01*
X355600Y890306D01*
D13*
X279400Y660400D03*
M02*
