M48
;GenerationSoftware,Autodesk,EAGLE,9.7.0*%
;CreationDate,2026-04-10T10:28:39Z*%
FMAT,2
ICI,OFF
METRIC,TZ,000.000
T8C0.300
T7C0.305
T6C0.350
T5C0.559
T4C0.650
T3C0.700
T2C1.067
T1C2.451
%
G90
M71
T1
X46672Y76200
X46672Y71120
X43497Y76200
X43497Y71120
T2
X48577Y74676
X48577Y72644
X43497Y73660
T3
X29657Y88252
X35437Y88252
T4
X28227Y87752
X36867Y87752
X28227Y91902
X36867Y91902
T5
X46298Y63396
X31172Y63592
X34868Y63592
X20339Y63396
X24034Y63396
X42602Y63396
T6
X38064Y70909
T7
X35560Y81280
X40640Y83820
X38100Y83820
X45720Y78740
X48260Y83820
X43180Y79172
X41072Y80010
X44393Y81280
X44481Y79319
X39370Y71120
X38100Y70282
X31729Y76649
X33020Y68580
X40640Y74930
X35560Y78351
X27940Y74092
X38097Y73660
X46990Y93142
X33020Y67310
X22860Y86360
X21692Y89002
X29210Y64770
X29210Y68580
X41910Y78054
X53340Y85090
X50800Y82550
X45720Y79356
X46990Y82550
X36830Y83820
X39520Y81430
X42535Y73660
X37465Y78452
X29478Y85358
X52070Y92710
X25832Y85090
X26670Y86360
X31750Y82550
X24130Y72390
X25400Y68438
X26670Y69850
X35560Y89031
X31750Y88900
X27940Y66040
X21590Y66472
X27940Y71120
X31750Y81280
X31750Y78740
X33160Y77469
X41224Y74930
X29642Y73660
X23292Y66040
X36830Y79578
X13970Y86360
X34290Y66040
X35560Y66317
X40640Y78740
X48260Y69850
X26670Y66040
X26670Y63500
X41910Y67310
X38100Y68580
X27940Y72433
T8
X34397Y72684
X35597Y72684
X35597Y71484
X34397Y71484
X33197Y71484
X31997Y71484
X33197Y72684
X31997Y72684
X34397Y73884
X35597Y73884
X35597Y75084
X34397Y75084
X33197Y75084
X31997Y75084
X31997Y73884
X33197Y73884
M30