G04 EAGLE Gerber RS-274X export*
G75*
%MOMM*%
%FSLAX34Y34*%
%LPD*%
%IN*%
%IPPOS*%
%AMOC8*
5,1,8,0,0,1.08239X$1,22.5*%
G01*
G04 Define Apertures*
%ADD10C,0.254000*%
D10*
X100200Y669700D02*
X100466Y663599D01*
X101263Y657545D01*
X102585Y651583D01*
X104422Y645759D01*
X106758Y640117D01*
X109578Y634700D01*
X112859Y629550D01*
X116577Y624705D01*
X120703Y620203D01*
X125205Y616077D01*
X130050Y612359D01*
X135200Y609078D01*
X140617Y606258D01*
X146259Y603922D01*
X152083Y602085D01*
X158045Y600763D01*
X164099Y599966D01*
X170200Y599700D01*
X196200Y599700D01*
X196200Y617700D01*
X244200Y617700D01*
X244200Y599700D01*
X306200Y599700D01*
X306200Y617700D01*
X354200Y617700D01*
X354200Y599700D01*
X416200Y599700D01*
X416200Y617700D01*
X464200Y617700D01*
X464200Y599700D01*
X490200Y599700D01*
X496301Y599966D01*
X502355Y600763D01*
X508317Y602085D01*
X514141Y603922D01*
X519783Y606258D01*
X525200Y609078D01*
X530350Y612359D01*
X535195Y616077D01*
X539697Y620203D01*
X543823Y624705D01*
X547541Y629550D01*
X550822Y634700D01*
X553642Y640117D01*
X555978Y645759D01*
X557815Y651583D01*
X559137Y657545D01*
X559934Y663599D01*
X560200Y669700D01*
X560200Y879700D01*
X559934Y885801D01*
X559137Y891855D01*
X557815Y897817D01*
X555978Y903641D01*
X553642Y909283D01*
X550822Y914700D01*
X547541Y919850D01*
X543823Y924695D01*
X539697Y929197D01*
X535195Y933323D01*
X530350Y937041D01*
X525200Y940322D01*
X519783Y943142D01*
X514141Y945478D01*
X508317Y947315D01*
X502355Y948637D01*
X496301Y949434D01*
X490200Y949700D01*
X170200Y949700D01*
X164099Y949434D01*
X158045Y948637D01*
X152083Y947315D01*
X146259Y945478D01*
X140617Y943142D01*
X135200Y940322D01*
X130050Y937041D01*
X125205Y933323D01*
X120703Y929197D01*
X116577Y924695D01*
X112859Y919850D01*
X109578Y914700D01*
X106758Y909283D01*
X104422Y903641D01*
X102585Y897817D01*
X101263Y891855D01*
X100466Y885801D01*
X100200Y879700D01*
X100200Y843700D01*
X170200Y843700D01*
X170200Y705700D01*
X100200Y705700D01*
X100200Y669700D01*
X279016Y872020D02*
X279028Y871737D01*
X279065Y871456D01*
X279127Y871179D01*
X279212Y870908D01*
X279321Y870647D01*
X279451Y870395D01*
X279604Y870156D01*
X279776Y869931D01*
X279968Y869722D01*
X280177Y869530D01*
X280402Y869358D01*
X280641Y869205D01*
X280893Y869075D01*
X281154Y868966D01*
X281425Y868881D01*
X281702Y868819D01*
X281983Y868782D01*
X282266Y868770D01*
X282549Y868782D01*
X282830Y868819D01*
X283107Y868881D01*
X283378Y868966D01*
X283640Y869075D01*
X283891Y869205D01*
X284130Y869358D01*
X284355Y869530D01*
X284564Y869722D01*
X284756Y869931D01*
X284928Y870156D01*
X285081Y870395D01*
X285212Y870647D01*
X285320Y870908D01*
X285405Y871179D01*
X285467Y871456D01*
X285504Y871737D01*
X285516Y872020D01*
X285516Y883020D01*
X285504Y883303D01*
X285467Y883584D01*
X285405Y883861D01*
X285320Y884132D01*
X285212Y884394D01*
X285081Y884645D01*
X284928Y884884D01*
X284756Y885109D01*
X284564Y885318D01*
X284355Y885510D01*
X284130Y885682D01*
X283891Y885835D01*
X283640Y885966D01*
X283378Y886074D01*
X283107Y886159D01*
X282830Y886221D01*
X282549Y886258D01*
X282266Y886270D01*
X281983Y886258D01*
X281702Y886221D01*
X281425Y886159D01*
X281154Y886074D01*
X280893Y885966D01*
X280641Y885835D01*
X280402Y885682D01*
X280177Y885510D01*
X279968Y885318D01*
X279776Y885109D01*
X279604Y884884D01*
X279451Y884645D01*
X279321Y884394D01*
X279212Y884132D01*
X279127Y883861D01*
X279065Y883584D01*
X279028Y883303D01*
X279016Y883020D01*
X279016Y872020D01*
X365416Y872020D02*
X365428Y871737D01*
X365465Y871456D01*
X365527Y871179D01*
X365612Y870908D01*
X365721Y870647D01*
X365851Y870395D01*
X366004Y870156D01*
X366176Y869931D01*
X366368Y869722D01*
X366577Y869530D01*
X366802Y869358D01*
X367041Y869205D01*
X367293Y869075D01*
X367554Y868966D01*
X367825Y868881D01*
X368102Y868819D01*
X368383Y868782D01*
X368666Y868770D01*
X368949Y868782D01*
X369230Y868819D01*
X369507Y868881D01*
X369778Y868966D01*
X370040Y869075D01*
X370291Y869205D01*
X370530Y869358D01*
X370755Y869530D01*
X370964Y869722D01*
X371156Y869931D01*
X371328Y870156D01*
X371481Y870395D01*
X371612Y870647D01*
X371720Y870908D01*
X371805Y871179D01*
X371867Y871456D01*
X371904Y871737D01*
X371916Y872020D01*
X371916Y883020D01*
X371904Y883303D01*
X371867Y883584D01*
X371805Y883861D01*
X371720Y884132D01*
X371612Y884394D01*
X371481Y884645D01*
X371328Y884884D01*
X371156Y885109D01*
X370964Y885318D01*
X370755Y885510D01*
X370530Y885682D01*
X370291Y885835D01*
X370040Y885966D01*
X369778Y886074D01*
X369507Y886159D01*
X369230Y886221D01*
X368949Y886258D01*
X368666Y886270D01*
X368383Y886258D01*
X368102Y886221D01*
X367825Y886159D01*
X367554Y886074D01*
X367293Y885966D01*
X367041Y885835D01*
X366802Y885682D01*
X366577Y885510D01*
X366368Y885318D01*
X366176Y885109D01*
X366004Y884884D01*
X365851Y884645D01*
X365721Y884394D01*
X365612Y884132D01*
X365527Y883861D01*
X365465Y883584D01*
X365428Y883303D01*
X365416Y883020D01*
X365416Y872020D01*
X279016Y915020D02*
X279028Y914737D01*
X279065Y914456D01*
X279127Y914179D01*
X279212Y913908D01*
X279321Y913647D01*
X279451Y913395D01*
X279604Y913156D01*
X279776Y912931D01*
X279968Y912722D01*
X280177Y912530D01*
X280402Y912358D01*
X280641Y912205D01*
X280893Y912075D01*
X281154Y911966D01*
X281425Y911881D01*
X281702Y911819D01*
X281983Y911782D01*
X282266Y911770D01*
X282549Y911782D01*
X282830Y911819D01*
X283107Y911881D01*
X283378Y911966D01*
X283640Y912075D01*
X283891Y912205D01*
X284130Y912358D01*
X284355Y912530D01*
X284564Y912722D01*
X284756Y912931D01*
X284928Y913156D01*
X285081Y913395D01*
X285212Y913647D01*
X285320Y913908D01*
X285405Y914179D01*
X285467Y914456D01*
X285504Y914737D01*
X285516Y915020D01*
X285516Y923020D01*
X285504Y923303D01*
X285467Y923584D01*
X285405Y923861D01*
X285320Y924132D01*
X285212Y924394D01*
X285081Y924645D01*
X284928Y924884D01*
X284756Y925109D01*
X284564Y925318D01*
X284355Y925510D01*
X284130Y925682D01*
X283891Y925835D01*
X283640Y925966D01*
X283378Y926074D01*
X283107Y926159D01*
X282830Y926221D01*
X282549Y926258D01*
X282266Y926270D01*
X281983Y926258D01*
X281702Y926221D01*
X281425Y926159D01*
X281154Y926074D01*
X280893Y925966D01*
X280641Y925835D01*
X280402Y925682D01*
X280177Y925510D01*
X279968Y925318D01*
X279776Y925109D01*
X279604Y924884D01*
X279451Y924645D01*
X279321Y924394D01*
X279212Y924132D01*
X279127Y923861D01*
X279065Y923584D01*
X279028Y923303D01*
X279016Y923020D01*
X279016Y915020D01*
X365416Y915020D02*
X365428Y914737D01*
X365465Y914456D01*
X365527Y914179D01*
X365612Y913908D01*
X365721Y913647D01*
X365851Y913395D01*
X366004Y913156D01*
X366176Y912931D01*
X366368Y912722D01*
X366577Y912530D01*
X366802Y912358D01*
X367041Y912205D01*
X367293Y912075D01*
X367554Y911966D01*
X367825Y911881D01*
X368102Y911819D01*
X368383Y911782D01*
X368666Y911770D01*
X368949Y911782D01*
X369230Y911819D01*
X369507Y911881D01*
X369778Y911966D01*
X370040Y912075D01*
X370291Y912205D01*
X370530Y912358D01*
X370755Y912530D01*
X370964Y912722D01*
X371156Y912931D01*
X371328Y913156D01*
X371481Y913395D01*
X371612Y913647D01*
X371720Y913908D01*
X371805Y914179D01*
X371867Y914456D01*
X371904Y914737D01*
X371916Y915020D01*
X371916Y923020D01*
X371904Y923303D01*
X371867Y923584D01*
X371805Y923861D01*
X371720Y924132D01*
X371612Y924394D01*
X371481Y924645D01*
X371328Y924884D01*
X371156Y925109D01*
X370964Y925318D01*
X370755Y925510D01*
X370530Y925682D01*
X370291Y925835D01*
X370040Y925966D01*
X369778Y926074D01*
X369507Y926159D01*
X369230Y926221D01*
X368949Y926258D01*
X368666Y926270D01*
X368383Y926258D01*
X368102Y926221D01*
X367825Y926159D01*
X367554Y926074D01*
X367293Y925966D01*
X367041Y925835D01*
X366802Y925682D01*
X366577Y925510D01*
X366368Y925318D01*
X366176Y925109D01*
X366004Y924884D01*
X365851Y924645D01*
X365721Y924394D01*
X365612Y924132D01*
X365527Y923861D01*
X365465Y923584D01*
X365428Y923303D01*
X365416Y923020D01*
X365416Y915020D01*
M02*
