G04 EAGLE Gerber RS-274X export*
G75*
%MOMM*%
%FSLAX34Y34*%
%LPD*%
%INSoldermask Bottom*%
%IPPOS*%
%AMOC8*
5,1,8,0,0,1.08239X$1,22.5*%
G01*
G04 Define Apertures*
%ADD10C,2.654200*%
%ADD11C,1.270200*%
%ADD12C,0.903200*%
%ADD13C,1.373200*%
%ADD14R,1.270000X1.270000*%
%ADD15C,0.660400*%
%ADD16C,0.705600*%
G36*
X281037Y889199D02*
X282266Y889320D01*
X283495Y889199D01*
X284677Y888841D01*
X285766Y888258D01*
X286721Y887475D01*
X287504Y886520D01*
X288087Y885431D01*
X288445Y884249D01*
X288566Y883022D01*
X288566Y872018D01*
X288445Y870791D01*
X288087Y869609D01*
X287504Y868520D01*
X286721Y867565D01*
X285766Y866782D01*
X284677Y866199D01*
X283495Y865841D01*
X282266Y865720D01*
X281037Y865841D01*
X279855Y866199D01*
X278766Y866782D01*
X277811Y867565D01*
X277028Y868520D01*
X276445Y869609D01*
X276087Y870791D01*
X275966Y872018D01*
X275966Y883022D01*
X276087Y884249D01*
X276445Y885431D01*
X277028Y886520D01*
X277811Y887475D01*
X278766Y888258D01*
X279855Y888841D01*
X281037Y889199D01*
G37*
G36*
X367437Y889199D02*
X368666Y889320D01*
X369895Y889199D01*
X371077Y888841D01*
X372166Y888258D01*
X373121Y887475D01*
X373904Y886520D01*
X374487Y885431D01*
X374845Y884249D01*
X374966Y883022D01*
X374966Y872018D01*
X374845Y870791D01*
X374487Y869609D01*
X373904Y868520D01*
X373121Y867565D01*
X372166Y866782D01*
X371077Y866199D01*
X369895Y865841D01*
X368666Y865720D01*
X367437Y865841D01*
X366255Y866199D01*
X365166Y866782D01*
X364211Y867565D01*
X363428Y868520D01*
X362845Y869609D01*
X362487Y870791D01*
X362366Y872018D01*
X362366Y883022D01*
X362487Y884249D01*
X362845Y885431D01*
X363428Y886520D01*
X364211Y887475D01*
X365166Y888258D01*
X366255Y888841D01*
X367437Y889199D01*
G37*
G36*
X281037Y929199D02*
X282266Y929320D01*
X283495Y929199D01*
X284677Y928841D01*
X285766Y928258D01*
X286721Y927475D01*
X287504Y926520D01*
X288087Y925431D01*
X288445Y924249D01*
X288566Y923022D01*
X288566Y915018D01*
X288445Y913791D01*
X288087Y912609D01*
X287504Y911520D01*
X286721Y910565D01*
X285766Y909782D01*
X284677Y909199D01*
X283495Y908841D01*
X282266Y908720D01*
X281037Y908841D01*
X279855Y909199D01*
X278766Y909782D01*
X277811Y910565D01*
X277028Y911520D01*
X276445Y912609D01*
X276087Y913791D01*
X275966Y915018D01*
X275966Y923022D01*
X276087Y924249D01*
X276445Y925431D01*
X277028Y926520D01*
X277811Y927475D01*
X278766Y928258D01*
X279855Y928841D01*
X281037Y929199D01*
G37*
G36*
X367437Y929199D02*
X368666Y929320D01*
X369895Y929199D01*
X371077Y928841D01*
X372166Y928258D01*
X373121Y927475D01*
X373904Y926520D01*
X374487Y925431D01*
X374845Y924249D01*
X374966Y923022D01*
X374966Y915018D01*
X374845Y913791D01*
X374487Y912609D01*
X373904Y911520D01*
X373121Y910565D01*
X372166Y909782D01*
X371077Y909199D01*
X369895Y908841D01*
X368666Y908720D01*
X367437Y908841D01*
X366255Y909199D01*
X365166Y909782D01*
X364211Y910565D01*
X363428Y911520D01*
X362845Y912609D01*
X362487Y913791D01*
X362366Y915018D01*
X362366Y923022D01*
X362487Y924249D01*
X362845Y925431D01*
X363428Y926520D01*
X364211Y927475D01*
X365166Y928258D01*
X366255Y928841D01*
X367437Y929199D01*
G37*
D10*
X434970Y711200D03*
D11*
X434970Y736600D03*
D10*
X434970Y762000D03*
X466720Y711200D03*
X466720Y762000D03*
D11*
X485770Y726440D03*
X485770Y746760D03*
D12*
X354366Y882520D03*
X296566Y882520D03*
D13*
X368666Y919020D03*
X282266Y919020D03*
X368666Y877520D03*
X282266Y877520D03*
D14*
X240344Y633956D03*
X203388Y633956D03*
X348678Y635924D03*
X311722Y635924D03*
X462978Y633956D03*
X426022Y633956D03*
D15*
X139700Y863600D03*
X342900Y660400D03*
X355600Y663174D03*
X406400Y787400D03*
X482600Y698500D03*
X266700Y660400D03*
X266700Y635000D03*
X419100Y673100D03*
X381000Y685800D03*
X406400Y838200D03*
X368300Y795782D03*
X232918Y660400D03*
X296418Y736600D03*
X412242Y749300D03*
X331600Y774691D03*
X317500Y787400D03*
X317500Y812800D03*
X279400Y711200D03*
X215900Y664718D03*
X395200Y814300D03*
X279400Y740918D03*
X279400Y724330D03*
X381000Y838200D03*
X457200Y787400D03*
X482600Y838200D03*
X431800Y791718D03*
X410718Y800100D03*
X443928Y812800D03*
X444812Y793195D03*
X393700Y711200D03*
X381000Y702818D03*
X317289Y766488D03*
X330200Y685800D03*
X406400Y749300D03*
X355600Y783507D03*
D16*
X380638Y709088D03*
D15*
X380974Y736600D03*
X469900Y931418D03*
X330200Y673100D03*
X228600Y863600D03*
X216915Y890015D03*
X292100Y647700D03*
X292100Y685800D03*
X419100Y780542D03*
X533400Y850900D03*
X508000Y825500D03*
X457200Y793559D03*
X469900Y825500D03*
X368300Y838200D03*
X355600Y812800D03*
X425349Y736600D03*
X374650Y784518D03*
X294783Y853583D03*
X520700Y927100D03*
X258318Y850900D03*
X266700Y863600D03*
X317500Y825500D03*
X241300Y723900D03*
X254000Y684376D03*
X266700Y698500D03*
X355600Y890306D03*
X317500Y889000D03*
X279400Y660400D03*
M02*
